#!OML:ASF E:/inclinewalkrobotboard/Project1/Captureday1/Session1/subject1.ASF
:FULLY-SPECIFIED
:DEGREES
276
root 0 0 0 1.3871255758397134 -8.722292020238829 0.9327949507615434
lowerback 1.4568903149930827 -1.267854990661798 -2.9472063887400894
upperback -1.058500399050886 -1.5640313196285363 2.2343100020621707
thorax -1.681350046198915 -0.7607830317829503 3.93860996863442
lowerneck -26.51814273642579 -1.8900452491905335 -7.194692381290448
upperneck 11.792313100229098 -0.7264151175330005 4.591061066171854
head 7.9531280469996695 -0.1812099973844252 2.622539331790055
rclavicle -5.6460511761535364E-15 -1.5214222650235228E-15
rhumerus -31.411635328279722 -1.5942738528520115 -80.93859804231589
rradius 30.84728686847345
rwrist 17.80419589042841
rhand -18.396297693578312 9.907371470703929
rfingers 7.125019999999954
rthumb 7.890637360726628 -19.92140392561442
lclavicle -1.6914409494701998E-15 -6.734034691084728E-16
lhumerus -10.789423935795456 8.707393570607088 89.62571718960187
lradius 60.02411613566383
lwrist -5.019930662618869
lhand -33.521893000848024 17.365072873616725
lfingers 7.125020000000008
lthumb -6.715625661692053 47.00545656037048
rfemur 9.693735300947695 8.080950235473344 37.54501479502781
rtibia 24.862708997634165
rfoot -21.388664209856234 -6.079264714070759
rtoes -1.0804809658559993
lfemur -31.488046459371674 -2.477574125489448 -10.049229290474473
ltibia 31.17405474327329
lfoot -4.213064653714759 2.3405225011936004
ltoes -1.5081517774117508
277
root 0 0 0 1.3835049822108676 -8.724449950084452 0.9242673970383676
lowerback 1.4504924627305684 -1.2634844588908032 -2.9445149688817063
upperback -1.0642476083959038 -1.5577595322178301 2.228577729606205
thorax -1.6836552024900573 -0.7582345614341574 3.931851831574804
lowerneck -26.435333861600057 -1.8854953198139164 -7.202722614499585
upperneck 11.94823560460448 -0.721715454504888 4.576111397250818
head 7.999401336135125 -0.18650604628310874 2.621607488086851
rclavicle -6.264592257433477E-15 -1.7318526406613769E-15
rhumerus -31.358759132216733 -1.3875849428573046 -80.94795158974003
rradius 30.874753445172967
rwrist 17.760249757619782
rhand -18.442268948029394 9.924109875814572
rfingers 7.125019999999955
rthumb 7.846330050981072 -19.90895259788211
lclavicle -2.0447471431802597E-15 -7.648676098082569E-16
lhumerus -10.793032624824876 8.90036735345528 89.63670569387841
lradius 59.87271373599958
lwrist -5.052118525568
lhand -33.52071847890453 17.313071008098703
lfingers 7.125020000000008
lthumb -6.71246352878801 46.952486989818695
rfemur 12.396393554232118 7.587715188008342 35.475059486181664
rtibia 29.366910212576407
rfoot -17.656044797463686 -4.401281842934797
rtoes -4.36041203761067
lfemur -31.5941611428688 -4.0258078550777086 -9.390755979083952
ltibia 25.177525713368688
lfoot -4.598039674874555 3.4720055996419696
ltoes -1.8175226228614978
278
root 0 0 0 1.3831207428450156 -8.738089426162444 0.9204525200202157
lowerback 1.426213322034231 -1.2613870473832491 -2.947969841540667
upperback -1.076443095648122 -1.5551434713143168 2.2232283823408547
thorax -1.6822271380575204 -0.7569566702276338 3.9291039914747925
lowerneck -26.369093196744206 -1.880591836182421 -7.218244866627825
upperneck 12.107527786020597 -0.7118653343713705 4.563785843692423
head 8.05046444530766 -0.1905213000970351 2.6236560915395435
rclavicle -7.170099176562951E-15 -1.709571003034858E-15
rhumerus -31.355935454716203 -1.3505971471514693 -80.93296344718989
rradius 30.868688718643636
rwrist 17.752391769051584
rhand -18.4505062273803 9.932434366346664
rfingers 7.125019999999955
rthumb 7.838239159907205 -19.902893351890608
lclavicle -2.584567088818466E-15 -7.550609882993339E-16
lhumerus -10.473397634748128 9.185115180118192 89.44309790755581
lradius 59.86375341340443
lwrist -5.159178376317932
lhand -33.57909961792229 17.261702440314835
lfingers 7.125020000000008
lthumb -6.766843177876201 46.89712655956839
rfemur 13.200128904277202 6.400518342013033 32.760543668459235
rtibia 37.895143647861964
rfoot -12.075870646899427 -2.3579150250936243
rtoes -5.632145911888717
lfemur -30.17303113108644 -4.484539946086917 -10.077045493767043
ltibia 23.900042439042895
lfoot -4.250227698626284 2.9810339064194986
ltoes -1.199894307154505
279
root 0 0 0 1.383810794593901 -8.752526189559784 0.920861558422457
lowerback 1.400451944908648 -1.2611063758447358 -2.9540333262205447
upperback -1.0889189156992138 -1.5551815147225696 2.220108734865984
thorax -1.68033911079974 -0.7565716992972376 3.9298848521776137
lowerneck -26.338664311501276 -1.8782311737867976 -7.2320861177435205
upperneck 12.200921581192535 -0.7040681954291433 4.559257250378643
head 8.082371095431526 -0.19248961529583836 2.6268919844412637
rclavicle -7.709038139315741E-15 -1.5439877789643373E-15
rhumerus -31.391347976191913 -1.489053749276839 -80.90108199120964
rradius 30.83287626362963
rwrist 17.755554229049146
rhand -18.42450652941032 9.948212790277234
rfingers 7.125019999999953
rthumb 7.8630342907394155 -19.889223707028584
lclavicle -2.9245556520141653E-15 -7.161381721584626E-16
lhumerus -10.092362378581061 9.468766603178423 89.2217418019054
lradius 59.904021433975196
lwrist -5.272807904595652
lhand -33.64428468637276 17.222880436833123
lfingers 7.125020000000008
lthumb -6.828828965476075 46.85346306122715
rfemur 8.1327287822582 4.533100158014916 30.37745888614988
rtibia 47.624856037214826
rfoot -4.7518625870576 -0.16855677383272116
rtoes -2.2350535877440567
lfemur -26.790812078552577 -4.545918498470281 -12.332972592395164
ltibia 25.524381460850815
lfoot -3.034986762893986 0.7459318671925752
ltoes 1.1044657945064724
280
root 0 0 0 1.3876520305966145 -8.765067572923915 0.927964891790562
lowerback 1.3906614806530069 -1.2666758124900237 -2.9566772179628757
upperback -1.0871161177590527 -1.5634601394200467 2.221720010647414
thorax -1.6724829028281314 -0.7603387545142424 3.932890351479085
lowerneck -26.403929432998876 -1.8828776638489204 -7.231904593197118
upperneck 12.143018433990113 -0.7037634529691955 4.561107084043768
head 8.071643565015645 -0.19069137831039107 2.6264804714871843
rclavicle -7.505731249381577E-15 -1.5024182521120193E-15
rhumerus -31.500681801646916 -1.9651542038920464 -80.8332313175307
rradius 30.737322625936233
rwrist 17.787392559358747
rhand -18.331382951415492 9.978887037393134
rfingers 7.12501999999995
rthumb 7.952200736060942 -19.857306608419663
lclavicle -2.9324361144535145E-15 -8.109059253011318E-16
lhumerus -9.891340810205596 9.688855832231429 89.14614188506025
lradius 59.91174303298797
lwrist -5.353054973577471
lhand -33.68445838531518 17.18195266159379
lfingers 7.125020000000009
lthumb -6.867208774933353 46.8089912405658
rfemur -1.8051186810713205 2.662766921506994 27.36317858058983
rtibia 58.06896277511109
rfoot 3.9922943677671388 0.5859973380742938
rtoes 4.7656578862917565
lfemur -21.879299654034696 -4.205191102154917 -15.673295866642807
ltibia 29.127301320591556
lfoot -1.3719291719970856 -2.554843675219175
ltoes 4.324358724121465
281
root 0 0 0 1.4021861272460938 -8.768922491565084 0.9476213111012998
lowerback 1.3971290142931547 -1.2792366917675906 -2.9610217772173963
upperback -1.0659921739186176 -1.5814017779724086 2.230543271144271
thorax -1.6533986672797896 -0.7689164813622271 3.9438326472724876
lowerneck -26.60414928882475 -1.9038409328303478 -7.223288452258092
upperneck 11.827830651891126 -0.728095853240878 4.598085766465545
head 7.984457226312969 -0.18545535339944505 2.6295483813729854
rclavicle -6.6406832534006325E-15 -1.2422330142681445E-15
rhumerus -31.760056523051688 -2.982143477775282 -80.66899995649746
rradius 30.51933130237841
rwrist 17.9229048614994
rhand -18.1205544255133 10.017599833304711
rfingers 7.125019999999947
rthumb 8.154165785366626 -19.81021798450813
lclavicle -2.8080443257701753E-15 -9.40776099119558E-16
lhumerus -10.048564381440753 9.654370756484692 89.28611901978879
lradius 59.87098931187349
lwrist -5.31700962394301
lhand -33.65469967510625 17.18227473243541
lfingers 7.125020000000009
lthumb -6.838931043745993 46.81019074055049
rfemur -10.816995243664344 1.4551824980109513 24.757548371458796
rtibia 65.3792102805273
rfoot 5.562110236134204 -2.0620398037953884
rtoes 9.792182189126109
lfemur -17.31387862070443 -3.374376023551892 -18.755812389055777
ltibia 31.811778819072277
lfoot -1.0422011032806004 -4.378615519522164
ltoes 6.589900563669687
282
root 0 0 0 1.4256211064629727 -8.756951095609478 0.9762969742511779
lowerback 1.4061396033981373 -1.2917705251919804 -2.9751998641057096
upperback -1.0410404201573447 -1.5989211628439917 2.2442404096176385
thorax -1.6317842774259588 -0.7769172054303369 3.9654940094336424
lowerneck -26.864418509509456 -1.9398504263417986 -7.221978805295869
upperneck 11.310772626311191 -0.7815757494261774 4.687197566826926
head 7.830670871649248 -0.1799326331980664 2.6452694345955416
rclavicle -5.0788273829454214E-15 -8.702144092086104E-16
rhumerus -32.11952790387458 -4.304351115267307 -80.44524609492018
rradius 30.22927524175742
rwrist 18.153361861059025
rhand -17.835987945256196 10.041716027367109
rfingers 7.125019999999942
rthumb 8.42734687704359 -19.778426764791675
lclavicle -2.6978656239860288E-15 -8.683001419149292E-16
lhumerus -10.371784496191296 9.355996743130117 89.47285761759588
lradius 59.85269334262129
lwrist -5.172711619445732
lhand -33.57078683610957 17.256224031610547
lfingers 7.125020000000009
lthumb -6.76052604623492 46.88874280626729
rfemur -17.338841343829163 0.37313988543857146 22.275733533808452
rtibia 70.17140217737614
rfoot 3.1984513659926836 -4.468824024847337
rtoes 10.371333135918322
lfemur -12.926497715026294 -2.7108025207652293 -22.034980009269162
ltibia 31.579122436611193
lfoot -3.901617559078562 -3.999547303460139
ltoes 8.128458646176757
283
root 0 0 0 1.4610270734360404 -8.759440368563304 1.0124399094397538
lowerback 1.3799563516831324 -1.305939432570007 -3.0043886266955404
upperback -1.0250832319758185 -1.61971521865512 2.257167420996805
thorax -1.598576196332873 -0.7859674482942671 3.9958427520880724
lowerneck -27.127012179838292 -1.979573549210203 -7.247183955746797
upperneck 10.808667596270173 -0.8381909125749895 4.801931911175167
head 7.68542937459241 -0.17580588065527455 2.674187199434348
rclavicle -4.0136732461551225E-15 -7.9033825629557975E-16
rhumerus -32.40827486125446 -5.201247028986579 -80.30168755316984
rradius 30.04448330468917
rwrist 18.412722833942507
rhand -17.621461223011888 9.965811093506165
rfingers 7.125019999999942
rthumb 8.633229135658283 -19.85233971455101
lclavicle -2.4299491344982897E-15 -7.237549192096653E-16
lhumerus -10.343658829269991 9.068867277218768 89.42371896310257
lradius 60.04823071469133
lwrist -5.107032702972214
lhand -33.56261883051724 17.348241261210873
lfingers 7.125020000000008
lthumb -6.75601214741788 46.98206935322763
rfemur -21.787456577268237 -0.4119150878748208 20.57627720473797
rtibia 71.11209152705432
rfoot 0.5008658647130186 -5.512565977780259
rtoes 8.017118338985888
lfemur -7.35642143802213 -2.470785819840643 -25.830079884928292
ltibia 28.540383604624772
lfoot -9.296223212562447 -2.2790811269784306
ltoes 8.796762054949603
